<?xml version="1.0" encoding="UTF-8"?>
<svg xmlns="http://www.w3.org/2000/svg" xmlns:xlink="http://www.w3.org/1999/xlink" width="23px" height="23px" viewBox="0 0 23 23" version="1.1">
<g id="surface1">
<path style=" stroke:none;fill-rule:nonzero;fill:rgb(74.901961%,74.901961%,74.901961%);fill-opacity:1;" d="M 9.609375 5.75 C 9.609375 5.351562 9.933594 5.03125 10.328125 5.03125 L 18.871094 5.03125 C 19.269531 5.03125 19.589844 5.351562 19.589844 5.75 C 19.589844 6.148438 19.269531 6.46875 18.871094 6.46875 L 10.328125 6.46875 C 9.933594 6.46875 9.609375 6.148438 9.609375 5.75 Z M 6.820312 3.796875 L 5.019531 6.082031 L 4.460938 5.347656 C 4.222656 5.027344 3.769531 4.964844 3.453125 5.203125 C 3.132812 5.445312 3.070312 5.894531 3.3125 6.214844 L 4.433594 7.691406 C 4.566406 7.871094 4.777344 7.976562 5 7.976562 L 5.007812 7.976562 C 5.226562 7.976562 5.433594 7.878906 5.570312 7.703125 L 7.949219 4.683594 C 8.195312 4.375 8.140625 3.921875 7.828125 3.675781 C 7.519531 3.429688 7.066406 3.484375 6.820312 3.796875 Z M 18.871094 10.78125 L 10.328125 10.78125 C 9.933594 10.78125 9.609375 11.101562 9.609375 11.5 C 9.609375 11.898438 9.933594 12.21875 10.328125 12.21875 L 18.871094 12.21875 C 19.269531 12.21875 19.589844 11.898438 19.589844 11.5 C 19.589844 11.101562 19.269531 10.78125 18.871094 10.78125 Z M 18.871094 16.53125 L 10.328125 16.53125 C 9.933594 16.53125 9.609375 16.851562 9.609375 17.25 C 9.609375 17.648438 9.933594 17.96875 10.328125 17.96875 L 18.871094 17.96875 C 19.269531 17.96875 19.589844 17.648438 19.589844 17.25 C 19.589844 16.851562 19.269531 16.53125 18.871094 16.53125 Z M 7.863281 11.5 C 7.863281 12.402344 7.320312 13.214844 6.488281 13.558594 C 5.65625 13.902344 4.695312 13.710938 4.058594 13.074219 C 3.421875 12.4375 3.230469 11.480469 3.578125 10.648438 C 3.921875 9.8125 4.734375 9.273438 5.636719 9.273438 C 6.867188 9.273438 7.863281 10.269531 7.863281 11.5 Z M 6.425781 11.5 C 6.425781 11.179688 6.234375 10.890625 5.9375 10.769531 C 5.640625 10.648438 5.300781 10.714844 5.074219 10.941406 C 4.851562 11.167969 4.78125 11.507812 4.90625 11.800781 C 5.027344 12.097656 5.316406 12.289062 5.636719 12.289062 C 5.84375 12.289062 6.046875 12.207031 6.195312 12.058594 C 6.34375 11.910156 6.425781 11.710938 6.425781 11.5 Z M 7.863281 17.25 C 7.863281 18.152344 7.320312 18.964844 6.488281 19.308594 C 5.65625 19.652344 4.695312 19.460938 4.058594 18.824219 C 3.421875 18.1875 3.230469 17.230469 3.578125 16.398438 C 3.921875 15.5625 4.734375 15.023438 5.636719 15.023438 C 6.226562 15.023438 6.792969 15.257812 7.210938 15.675781 C 7.628906 16.089844 7.863281 16.660156 7.863281 17.25 Z M 6.425781 17.25 C 6.425781 16.929688 6.234375 16.640625 5.9375 16.519531 C 5.640625 16.398438 5.300781 16.464844 5.074219 16.691406 C 4.851562 16.917969 4.78125 17.257812 4.90625 17.550781 C 5.027344 17.847656 5.316406 18.039062 5.636719 18.039062 C 5.84375 18.039062 6.046875 17.957031 6.195312 17.808594 C 6.34375 17.660156 6.425781 17.460938 6.425781 17.25 Z M 6.425781 17.25 "/>
</g>
</svg>
