<?xml version="1.0" encoding="UTF-8"?>
<svg xmlns="http://www.w3.org/2000/svg" xmlns:xlink="http://www.w3.org/1999/xlink" width="23px" height="23px" viewBox="0 0 23 23" version="1.1">
<g id="surface1">
<path style=" stroke:none;fill-rule:evenodd;fill:rgb(74.901961%,74.901961%,74.901961%);fill-opacity:1;" d="M 11.5 4.976562 C 13.246094 4.976562 14.664062 6.390625 14.664062 8.140625 C 14.664062 9.886719 13.246094 11.300781 11.5 11.300781 C 9.753906 11.300781 8.335938 9.886719 8.335938 8.140625 C 8.335938 6.390625 9.753906 4.976562 11.5 4.976562 Z M 11.5 4.976562 "/>
<path style=" stroke:none;fill-rule:evenodd;fill:rgb(74.901961%,74.901961%,74.901961%);fill-opacity:1;" d="M 11.5 11.859375 C 13.925781 11.859375 16.003906 13.597656 16.867188 16.058594 C 15.476562 17.402344 13.585938 18.226562 11.5 18.226562 C 9.414062 18.226562 7.523438 17.402344 6.132812 16.058594 C 6.996094 13.597656 9.074219 11.859375 11.5 11.859375 Z M 11.5 11.859375 "/>
<path style=" stroke:none;fill-rule:evenodd;fill:rgb(74.901961%,74.901961%,74.901961%);fill-opacity:1;" d="M 18.597656 4.773438 C 20.03125 4.773438 21.191406 5.933594 21.191406 7.367188 C 21.191406 8.800781 20.03125 9.960938 18.597656 9.960938 C 17.167969 9.960938 16.003906 8.800781 16.003906 7.367188 C 16.003906 5.933594 17.167969 4.773438 18.597656 4.773438 Z M 18.597656 4.773438 "/>
<path style=" stroke:none;fill-rule:evenodd;fill:rgb(74.901961%,74.901961%,74.901961%);fill-opacity:1;" d="M 18.597656 10.417969 C 20.585938 10.417969 22.292969 11.84375 23 13.859375 C 21.859375 14.960938 20.308594 15.640625 18.597656 15.640625 C 18.300781 15.640625 18.007812 15.617188 17.71875 15.578125 C 17.203125 14.195312 16.3125 12.972656 15.167969 12.125 C 16.03125 11.074219 17.25 10.417969 18.597656 10.417969 Z M 18.597656 10.417969 "/>
<path style=" stroke:none;fill-rule:evenodd;fill:rgb(74.901961%,74.901961%,74.901961%);fill-opacity:1;" d="M 4.402344 4.773438 C 5.835938 4.773438 6.996094 5.933594 6.996094 7.367188 C 6.996094 8.800781 5.835938 9.960938 4.402344 9.960938 C 2.96875 9.960938 1.808594 8.800781 1.808594 7.367188 C 1.808594 5.933594 2.96875 4.773438 4.402344 4.773438 Z M 4.402344 4.773438 "/>
<path style=" stroke:none;fill-rule:evenodd;fill:rgb(74.901961%,74.901961%,74.901961%);fill-opacity:1;" d="M 4.402344 10.417969 C 5.75 10.417969 6.96875 11.074219 7.832031 12.125 C 6.6875 12.972656 5.796875 14.195312 5.28125 15.578125 C 4.992188 15.621094 4.699219 15.640625 4.402344 15.640625 C 2.691406 15.640625 1.136719 14.960938 0 13.863281 C 0.707031 11.84375 2.410156 10.421875 4.402344 10.421875 Z M 4.402344 10.417969 "/>
</g>
</svg>
